<svg fill="none" height="44" viewBox="0 0 370 44" width="370" xmlns="http://www.w3.org/2000/svg" xmlns:xlink="http://www.w3.org/1999/xlink"><linearGradient id="a"><stop offset="0" stop-color="#ed480b"/><stop offset=".99" stop-color="#f2b100"/></linearGradient><linearGradient id="b" gradientUnits="userSpaceOnUse" x1="200.413" x2="262.742" xlink:href="#a" y1="15.6125" y2="15.6125"/><linearGradient id="c"><stop offset="0" stop-color="#bc4408"/><stop offset=".33" stop-color="#b94208"/><stop offset=".55" stop-color="#b03d08"/><stop offset=".73" stop-color="#a13409"/><stop offset=".89" stop-color="#8d270a"/><stop offset="1" stop-color="#7a1c0b"/></linearGradient><radialGradient id="d" cx="0" cy="0" gradientTransform="matrix(21.2458 0 0 21.1411 233.053 15.6119)" gradientUnits="userSpaceOnUse" r="1" xlink:href="#c"/><linearGradient id="e" gradientUnits="userSpaceOnUse" x1="281.645" x2="281.645" xlink:href="#a" y1="42.2715" y2="2.63307"/><radialGradient id="f" cx="0" cy="0" gradientTransform="matrix(67.5509 0 0 67.2179 282.518 40.8998)" gradientUnits="userSpaceOnUse" r="1" xlink:href="#c"/><linearGradient id="g"><stop offset="0" stop-color="#fff"/><stop offset="1" stop-color="#fff7c4"/></linearGradient><linearGradient id="h" gradientUnits="userSpaceOnUse" x1="337.724" x2="334.634" xlink:href="#g" y1="21.7592" y2="22.4585"/><linearGradient id="i" gradientUnits="userSpaceOnUse" x1="194.367" x2="194.367" xlink:href="#a" y1="41.1315" y2="3.71727"/><radialGradient id="j" cx="0" cy="0" gradientTransform="matrix(66.3915 0 0 66.0643 262.523 37.8762)" gradientUnits="userSpaceOnUse" r="1" xlink:href="#c"/><linearGradient id="k"><stop offset="0" stop-color="#ff8206"/><stop offset="1" stop-color="#6b1600"/></linearGradient><linearGradient id="l" gradientUnits="userSpaceOnUse" x1="194.367" x2="194.367" xlink:href="#k" y1="43.8575" y2="23.9701"/><linearGradient id="m" gradientUnits="userSpaceOnUse" x1="184.994" x2="184.96" xlink:href="#a" y1="33.0439" y2="16.9296"/><linearGradient id="n"><stop offset="0" stop-color="#a32100"/><stop offset="1" stop-color="#d36c05"/></linearGradient><linearGradient id="o" gradientUnits="userSpaceOnUse" x1="193.145" x2="189.78" xlink:href="#n" y1="19.0004" y2="32.1313"/><linearGradient id="p"><stop offset="0" stop-color="#7a1c0b"/><stop offset=".94" stop-color="#bc4408"/></linearGradient><linearGradient id="q" gradientUnits="userSpaceOnUse" x1="184.571" x2="176.664" xlink:href="#p" y1="30.1763" y2="24.9341"/><linearGradient id="r" gradientUnits="userSpaceOnUse" x1="184.983" x2="185.006" xlink:href="#a" y1="13.2742" y2="24.333"/><linearGradient id="s" gradientUnits="userSpaceOnUse" x1="185.066" x2="175.771" xlink:href="#p" y1="17.1648" y2="17.1843"/><linearGradient id="t" gradientUnits="userSpaceOnUse" x1="185.193" x2="191.117" xlink:href="#n" y1="15.1634" y2="18.9195"/><linearGradient id="u"><stop offset="0" stop-color="#33ffa7"/><stop offset="1" stop-color="#00ced1"/></linearGradient><radialGradient id="v" cx="0" cy="0" gradientTransform="matrix(8.49734885 -.00442727 .00458712 8.80414881 188.093 18.4682)" gradientUnits="userSpaceOnUse" r="1" xlink:href="#u"/><radialGradient id="w" cx="0" cy="0" gradientTransform="matrix(4.31812941 -.00224982 .00233105 4.47403939 183.94 22.8819)" gradientUnits="userSpaceOnUse" r="1" xlink:href="#u"/><linearGradient id="x" gradientUnits="userSpaceOnUse" x1="185.053" x2="191.951" y1="18.2829" y2="18.2684"><stop offset="0" stop-color="#400900"/><stop offset="1" stop-color="#abfbd3"/></linearGradient><linearGradient id="y" gradientUnits="userSpaceOnUse" x1="183.916" x2="182.204" xlink:href="#g" y1="11.7865" y2="13.2477"/><linearGradient id="z" gradientUnits="userSpaceOnUse" x1="198.327" x2="198.327" xlink:href="#a" y1="42.2715" y2="2.63306"/><linearGradient id="A" gradientUnits="userSpaceOnUse" x1="290.225" x2="290.225" xlink:href="#a" y1="42.2715" y2="2.63306"/><radialGradient id="B" cx="0" cy="0" gradientTransform="matrix(53.5355 0 0 53.2716 285.35 26.9414)" gradientUnits="userSpaceOnUse" r="1" xlink:href="#c"/><radialGradient id="C" cx="0" cy="0" gradientTransform="matrix(9.65884 0 0 9.61123 195.455 13.1651)" gradientUnits="userSpaceOnUse" r="1" xlink:href="#c"/><linearGradient id="D" gradientUnits="userSpaceOnUse" x1="299.642" x2="296.584" xlink:href="#g" y1="11.7204" y2="12.5485"/><linearGradient id="E" gradientUnits="userSpaceOnUse" x1="241.88" x2="240.162" xlink:href="#g" y1="12.9989" y2="13.485"/><linearGradient id="F" gradientUnits="userSpaceOnUse" x1="169.587" x2="107.257" xlink:href="#a" y1="-0" y2="-0"/><radialGradient id="G" cx="0" cy="0" gradientTransform="matrix(-.30508 0 0 -.303577 136.945 7.99212)" gradientUnits="userSpaceOnUse" r="1" xlink:href="#c"/><linearGradient id="H" gradientUnits="userSpaceOnUse" x1="88.3487" x2="88.3487" xlink:href="#a" y1="42.2715" y2="2.63307"/><radialGradient id="I" cx="0" cy="0" gradientTransform="matrix(-67.5508 0 0 -67.2179 87.479 40.8998)" gradientUnits="userSpaceOnUse" r="1" xlink:href="#c"/><linearGradient id="J" gradientUnits="userSpaceOnUse" x1="32.2777" x2="35.3676" xlink:href="#g" y1="21.7616" y2="22.4609"/><linearGradient id="K" gradientUnits="userSpaceOnUse" x1="175.633" x2="175.633" xlink:href="#a" y1="41.1315" y2="3.71727"/><radialGradient id="L" cx="0" cy="0" gradientTransform="matrix(-66.3915 0 0 -66.0643 107.474 37.8762)" gradientUnits="userSpaceOnUse" r="1" xlink:href="#c"/><linearGradient id="M" gradientUnits="userSpaceOnUse" x1="175.633" x2="175.633" xlink:href="#k" y1="43.8575" y2="23.9701"/><linearGradient id="N" gradientUnits="userSpaceOnUse" x1="171.679" x2="171.679" xlink:href="#a" y1="42.2715" y2="2.63306"/><linearGradient id="O" gradientUnits="userSpaceOnUse" x1="79.7754" x2="79.7754" xlink:href="#a" y1="42.2715" y2="2.63306"/><radialGradient id="P" cx="0" cy="0" gradientTransform="matrix(-53.5355 0 0 -53.2716 84.6479 26.9414)" gradientUnits="userSpaceOnUse" r="1" xlink:href="#c"/><radialGradient id="Q" cx="0" cy="0" gradientTransform="matrix(-9.66494 0 0 -9.6173 174.555 13.1651)" gradientUnits="userSpaceOnUse" r="1" xlink:href="#c"/><linearGradient id="R" gradientUnits="userSpaceOnUse" x1="70.3551" x2="73.4127" xlink:href="#g" y1="11.7175" y2="12.5456"/><linearGradient id="S" gradientUnits="userSpaceOnUse" x1="128.119" x2="129.837" xlink:href="#g" y1="12.9967" y2="13.4828"/><linearGradient id="T"><stop offset="0" stop-color="#f4a940"/><stop offset=".09" stop-color="#e69f3c"/><stop offset=".27" stop-color="#c28633"/><stop offset=".51" stop-color="#885e23"/><stop offset=".8" stop-color="#39270f"/><stop offset="1"/></linearGradient><radialGradient id="U" cx="0" cy="0" gradientTransform="matrix(11.9917 0 0 3.57613 41.452 22.6897)" gradientUnits="userSpaceOnUse" r="1" xlink:href="#T"/><radialGradient id="V" cx="0" cy="0" gradientTransform="matrix(11.9917 0 0 3.57613 80.2368 12.1252)" gradientUnits="userSpaceOnUse" r="1" xlink:href="#T"/><radialGradient id="W" cx="0" cy="0" gradientTransform="matrix(11.9917 0 0 3.57613 136.429 13.1999)" gradientUnits="userSpaceOnUse" r="1" xlink:href="#T"/><radialGradient id="X" cx="0" cy="0" gradientTransform="matrix(11.9917 0 0 3.57613 247.327 13.1999)" gradientUnits="userSpaceOnUse" r="1" xlink:href="#T"/><radialGradient id="Y" cx="0" cy="0" gradientTransform="matrix(6.31454426 -5.3703368 1.60820058 1.89095287 189.267 6.87646)" gradientUnits="userSpaceOnUse" r="1" xlink:href="#T"/><radialGradient id="Z" cx="0" cy="0" gradientTransform="matrix(11.9917 0 0 3.57613 304.598 11.8156)" gradientUnits="userSpaceOnUse" r="1" xlink:href="#T"/><radialGradient id="aa" cx="0" cy="0" gradientTransform="matrix(11.9917 0 0 3.57613 342.344 21.7364)" gradientUnits="userSpaceOnUse" r="1" xlink:href="#T"/><path d="m206.72 20.2467h42.369c3.399 0 8.168-1.1709 13.66-9.2746-9.041 2.1498-45.127 3.3579-62.33 3.3579 2.428 2.4163 6.307 5.9167 6.307 5.9167z" fill="url(#b)"/><path d="m262.743 10.9721c-2.84 3.5872-8.972 6.1459-23.79 6.1459-12.77 0-27.47.1115-35.583.0558 1.949 1.8338 3.344 3.0729 3.344 3.0729h42.368c3.4 0 8.169-1.1709 13.661-9.2746z" fill="url(#d)"/><path d="m203.725 21.9071s-.156 2.8375 0 7.1433c35.016 0 82.689 2.1065 143.587 10.619l12.328-17.7623z" fill="url(#e)"/><path d="m346.627 31.5162c-73.032-7.0752-123.819-6.4495-142.902-6.4495v3.9837c35.016 0 82.689 2.1065 143.587 10.619 0 0-.336-4.2315-.685-8.1532z" fill="url(#f)"/><path d="m301.22 21.9071h48.508c-9.041 4.0642-32.401 4.058-48.508 0z" fill="#f9a346" opacity=".5"/><path d="m338.147 22.1115c.013.4213-1.139.7992-2.565.8364-1.432.0372-2.565-.3841-2.572-.8054 0-.0805.05-.1611.131-.2416h4.894c.056.0619.118.1425.118.2106z" fill="url(#h)"/><path d="m346.627 31.5162c3.287-2.98 7.422-6.2822 13.013-9.6091-2.565 3.6986-12.328 17.7623-12.328 17.7623-.249-3.0172-.511-5.991-.685-8.1532z" fill="#f9a346" opacity=".5"/><path d="m200.693 21.9071-15.684 14.6646v7.4283l18.716-14.9558v-7.1371z" fill="url(#i)"/><path d="m198.333 33.3067c-1.575-1.7967-3.219-3.0977-5.392-4.1572l-7.932 7.416v7.4283l13.324-10.6933z" fill="#f9a346" opacity=".5"/><path d="m185.009 41.1811 18.716-16.1144v3.9775l-18.716 14.9558z" fill="url(#j)"/><path d="m185.009 41.1811v2.8189l18.716-14.9558v-3.9775z" fill="url(#l)" opacity=".3"/><path d="m197.642 21.523c-5.479 4.5908-8.168 7.0875-12.508 11.9014-3.294-3.6615-9.532-9.3365-12.838-11.8891 3.175-2.9552 9.09-8.4196 12.763-11.9014 4.875 4.4917 7.397 6.9885 12.583 11.8891z" fill="url(#m)"/><path d="m186.728 23.9082 7.49-2.3853h3.418c-5.087 4.7953-7.82 7.3416-12.508 11.9015l-.019-3.1659 1.619-6.3441z" fill="url(#o)"/><path d="m172.296 21.5353h3.486c4.794 2.9057 9.333 8.7232 9.333 8.7232l.019 3.1659c-3.294-3.6615-9.532-9.3365-12.838-11.8891z" fill="url(#q)"/><path d="m184.686 9.98705c.554.17345.728 1.97635.373 2.81275-3.549 4.3492-9.277 8.7355-9.277 8.7355s-2.889 0-3.486 0c3.194-2.9676 8.822-8.2585 12.39-11.54825z" fill="#f9a346" opacity=".5"/><path d="m185.109 30.2585c3.169-3.4384 5.572-5.706 9.109-8.7355-3.555-3.0234-5.977-5.291-9.165-8.7232-2.671 2.8065-6.357 6.2326-9.277 8.7355 2.939 2.4968 6.643 5.9229 9.333 8.7232z" fill="url(#r)"/><path d="m194.218 21.5229h-2.472l-6.712 6.053s.069 2.0755.081 2.6826c4.745-5.105 9.109-8.7356 9.109-8.7356z" fill="#f9a346"/><path d="m185.059 12.7998-.012 2.2303-2.565 4.0395-4.309 2.4595-2.391.0062z" fill="url(#s)"/><path d="m187.581 18.9333-2.534-3.9032v-2.2303c3.2 3.4322 5.616 5.6998 9.171 8.7232h-2.26l-4.383-2.5897z" fill="url(#t)"/><path d="m191.964 21.523-6.874 6.5052-6.917-6.499 6.874-6.4991z" fill="url(#v)"/><path d="m185.09 28.0282-6.917-6.4929 4.645-.2168s3.443-.0496 5.51 0c2.472.0558 3.636.2107 3.636.2107l-6.874 6.5052z" fill="#215870" opacity=".3"/><path d="m188.322 21.3123c-1.09.9541-1.98 1.7967-2.746 2.5959-.772-.7992-1.669-1.6418-2.764-2.5959 1.089-.9541 1.979-1.7967 2.745-2.5959.772.7992 1.669 1.6418 2.765 2.5959z" fill="url(#w)"/><path d="m178.173 21.5292 4.645-.2107 2.758 2.5897-.486 4.12z" fill="#215b70" opacity=".5"/><path d="m185.047 15.0301.517 3.6863 2.758 2.5959 3.642.2107z" fill="url(#x)"/><path d="m185.563 18.7164 2.952 2.0073 3.449.7993-3.642-.2107z" fill="#dcfff2"/><path d="m183.876 13.9088-4.041 3.1596-2.565 3.0606z" fill="#f9a346"/><path d="m189.934 25.3517-3.754 3.2155-1.071 1.6913z" fill="#f9a346"/><path d="m183.061 12.7316c.099.1425.523-.1115.958-.5638.43-.4522.704-.9355.604-1.078-.099-.1425-.523.1116-.958.5638-.43.4523-.704.9355-.604 1.078z" fill="url(#y)"/><path d="m192.045 16.2011c1.693 1.6108-.747 2.4719-3.481.2106 2.161 2.0445 5.66 5.1112 5.66 5.1112h3.418l-5.591-5.3218z" fill="#bc4408" opacity=".2"/><path d="m205.263 14.3115 1.357 2.8499 5.392 3.0853h-5.292l-6.307-5.9105z" fill="#7a1c0b" opacity=".55"/><path d="m211.657 21.9071c-11.089-9.1135-26.654-21.9071-26.654-21.9071l.013 7.16812 17.128 14.75138z" fill="url(#z)"/><path d="m210.443 29.0752 8.561 7.3726s27.725.1363 41.808 1.4063c2.958-4.2129 12.864-15.8231 15.242-18.5305h84.208c3.014-4.8449 6.494-10.14816 9.738-15.97187-16.867 6.17066-54.995 8.09127-96.287 9.65867l-15.727 19.0386s-27.738-1.078-35.508-1.2577c-.218-.1734-.896-.731-1.93-1.5798z" fill="url(#A)"/><path d="m274.989 21.9319-3.779 4.2996-1.444 5.2042-3.73-.2603 5.398-9.2435z" fill="#7a1c0b" opacity=".55"/><path d="m210.443 29.0752 8.561 7.3726s27.551.8859 41.808 1.4001c2.958-4.2129 12.864-15.8231 15.242-18.5305h84.208c-2.422-1.3506-4.414-2.4596-5.908-3.296-15.709 0-64.098.2602-78.829.2602 0 0-13.007 15.6311-15.79 18.9147-11.86-.6072-39.778-1.4993-39.778-1.4993l-5.454-4.5722-4.054-.0558z" fill="url(#B)"/><path d="m205.898 21.9195-20.889-17.51455v2.76317l17.116 14.73898z" fill="url(#C)"/><path d="m360.262 19.3174-5.908-3.296 15.646-12.67586z" fill="#f9a346" opacity=".5"/><path d="m213.799 31.9623c.392-1.425 5.448-2.6455 7.808-1.8896-.511-.4213-1.053-.8612-1.053-.8612l-10.105-.1363z" fill="#7a1c0b" opacity=".55"/><path d="m275.68 12.8431c16.967-.6009 33.273-1.2886 48.689-2.4534-8.823 4.5103-32.395 5.706-48.689 2.4534z" fill="#f9a346" opacity=".35"/><path d="m300.118 12.0439c.031.4213-1.102.8488-2.528.9479-1.426.0992-2.577-.2726-2.602-.7 0-.0806.043-.1673.124-.2479 1.619-.0681 3.256-.1425 4.888-.2106.062.0557.124.1363.124.2044z" fill="url(#D)"/><g fill="#f9a346"><path d="m273.657 18.5182c-4.825 5.1608-6.176 3.5314-2.858-1.9764-1.924 2.3295-8.386 10.08-10.584 12.8122 5.248-5.6379 6.643-4.0085 3.617.9107 1.768-2.1312 8.468-10.1357 9.831-11.7465z" opacity=".5"/><path d="m190.526 9.03295c5.746 4.11995 8.791 5.15465 2.571-2.37905 2.341 1.902 10.105 8.2709 12.795 10.5137-6.538-4.8882-8.262-4.8882-3.549 1.7657-2.154-1.741-10.167-8.5931-11.817-9.90655z" opacity=".5"/><path d="m193.029 29.0752 8.05-6.2946c7.614-.1177 18.529.0868 29.12-.8735-12.135-.031-29.506 0-29.506 0z" opacity=".5"/><path d="m227.123 13.7539c9.538-.316 18.871-.8054 27.233-1.5985-4.937 2.8128-18.056 3.6677-27.233 1.5985z" opacity=".5"/></g><path d="m242.115 13.2149c.019.2664-.61.5328-1.413.6009-.803.0682-1.451-.1611-1.469-.4275 0-.0495.025-.1053.068-.1548.909-.0496 1.831-.0992 2.746-.1487.037.0371.068.0867.075.1301z" fill="url(#E)"/><path d="m163.28 20.2467h-42.369c-3.399 0-8.168-1.1709-13.66-9.2746 9.041 2.1498 45.127 3.3579 62.33 3.3579-2.428 2.4163-6.307 5.9167-6.307 5.9167z" fill="url(#F)"/><path d="m107.257 10.9721c2.84 3.5872 8.972 6.1459 23.79 6.1459 12.77 0 27.47.1115 35.583.0558-1.949 1.8338-3.344 3.0729-3.344 3.0729h-42.368c-3.4 0-8.169-1.1709-13.661-9.2746z" fill="url(#G)"/><path d="m166.275 21.9071s.156 2.8375 0 7.1433c-35.016 0-82.6892 2.1065-143.587 10.619l-12.3277-17.7623z" fill="url(#H)"/><path d="m23.3729 31.5162c73.0324-7.0752 123.8191-6.4495 142.9021-6.4495v3.9837c-35.016 0-82.6893 2.1065-143.587 10.619 0 0 .3362-4.2315.6849-8.1532z" fill="url(#I)"/><path d="m68.78 21.9071h-48.5077c9.0403 4.0642 32.4007 4.058 48.5077 0z" fill="#f9a346" opacity=".5"/><path d="m31.8529 22.1115c-.0125.4213 1.1394.7992 2.5714.8364s2.5651-.3841 2.5714-.8054c0-.0805-.0498-.1611-.1308-.2416-1.625 0-3.2562 0-4.8937 0-.0561.0619-.1183.1425-.1183.2106z" fill="url(#J)"/><path d="m23.3729 31.5162c-3.2874-2.98-7.4215-6.2822-13.0126-9.6091 2.5652 3.6986 12.3277 17.7623 12.3277 17.7623.2491-3.0172.5106-5.991.6849-8.1532z" fill="#f9a346" opacity=".5"/><path d="m169.307 21.9071 15.684 14.6646v7.4283l-18.716-14.9558v-7.1371z" fill="url(#K)"/><path d="m171.636 33.3067c1.575-1.7967 3.243-3.0977 5.416-4.1572l7.932 7.416v7.4283l-13.348-10.6933z" fill="#f9a346" opacity=".5"/><path d="m184.991 41.1811-18.716-16.1144v3.9775l18.716 14.9558z" fill="url(#L)"/><path d="m184.991 41.1811v2.8189l-18.716-14.9558v-3.9775z" fill="url(#M)" opacity=".3"/><path d="m164.737 14.3115-1.357 2.8499-5.392 3.0853h5.292l6.307-5.9105z" fill="#7a1c0b" opacity=".55"/><path d="m158.343 21.9071c11.089-9.1135 26.66-21.9071 26.66-21.9071l.013 7.16812-17.153 14.75138-9.514-.0124z" fill="url(#N)"/><path d="m159.557 29.0752-8.561 7.3726s-27.725.1363-41.808 1.4063c-2.958-4.2129-12.8636-15.8231-15.242-18.5305h-84.20834c-3.01344-4.8511-6.49385-10.15435-9.73766-15.97806 16.8666 6.17065 54.9954 8.09126 96.287 9.65866l15.727 19.0386s27.738-1.078 35.508-1.2577c.218-.1734.896-.731 1.93-1.5798l10.105-.1363z" fill="url(#O)"/><path d="m95.0107 21.9319 3.7792 4.2996 1.4441 5.2042 3.73-.2603-5.3982-9.2435z" fill="#7a1c0b" opacity=".55"/><path d="m159.557 29.0752-8.561 7.3726s-27.551.8859-41.808 1.4001c-2.958-4.2129-12.8636-15.8231-15.242-18.5305h-84.20833c2.42193-1.3506 4.41433-2.4596 5.90863-3.296 15.7085 0 64.0979.2602 78.8289.2602 0 0 13.0068 15.6311 15.7898 18.9147 11.86-.6072 39.778-1.4993 39.778-1.4993l5.455-4.5722 4.053-.0558z" fill="url(#P)"/><path d="m164.102 21.9195 20.907-17.51455v2.76317l-17.134 14.73898z" fill="url(#Q)"/><path d="m9.73766 19.3174 5.90864-3.296-15.6463-12.67586z" fill="#f9a346" opacity=".5"/><path d="m156.201 31.9623c-.392-1.425-5.448-2.6455-7.808-1.8896.511-.4213 1.053-.8612 1.053-.8612l10.105-.1363z" fill="#7a1c0b" opacity=".55"/><path d="m94.3196 12.8431c-16.9662-.6009-33.2724-1.2886-48.6883-2.4534 8.8224 4.5103 32.3945 5.706 48.6883 2.4534z" fill="#f9a346" opacity=".35"/><path d="m69.882 12.0439c-.0311.4213 1.102.8488 2.5278.9479 1.4258.0992 2.5776-.2726 2.6025-.7 0-.0806-.0435-.1673-.1245-.2479-1.6188-.0681-3.2562-.1425-4.8875-.2106-.0622.0557-.1245.1363-.1245.2044z" fill="url(#R)"/><g fill="#f9a346"><path d="m96.3431 18.5182c4.8249 5.1608 6.1759 3.5314 2.8578-1.9764 1.9241 2.3295 8.3861 10.08 10.5841 12.8122-5.248-5.6379-6.643-4.0085-3.617.9107-1.768-2.1312-8.4676-10.1357-9.8311-11.7465z" opacity=".5"/><path d="m179.474 9.03295c-5.746 4.11995-8.791 5.15465-2.571-2.37905-2.341 1.902-10.105 8.2709-12.795 10.5137 6.538-4.8882 8.262-4.8882 3.549 1.7657 2.154-1.741 10.167-8.5931 11.817-9.90655z" opacity=".5"/><path d="m176.971 29.0752-8.05-6.2946c-7.615-.1177-18.529.0868-29.12-.8735 12.135-.031 29.506 0 29.506 0z" opacity=".5"/><path d="m142.877 13.7539c-9.538-.316-18.871-.8054-27.233-1.5985 4.937 2.8128 18.056 3.6677 27.233 1.5985z" opacity=".5"/></g><path d="m127.885 13.2149c-.019.2664.61.5328 1.413.6009.803.0682 1.451-.1611 1.469-.4275 0-.0495-.025-.1053-.068-.1548-.909-.0496-1.831-.0992-2.746-.1487-.037.0371-.068.0867-.075.1301z" fill="url(#S)"/><path d="m22.0342 22.6939c0 1.9763 5.3794 3.581 12.0165 3.581 6.637 0 12.0164-1.6047 12.0164-3.581 0-1.9764-5.3794-3.581-12.0164-3.581-6.6371 0-12.0165 1.6046-12.0165 3.581z" fill="url(#U)" opacity=".6"/><path d="m60.8666 12.1245c0 1.9763 5.3794 3.5809 12.0165 3.5809 6.637 0 12.0164-1.6046 12.0164-3.5809 0-1.9764-5.3794-3.58099-12.0164-3.58099-6.6371 0-12.0165 1.60459-12.0165 3.58099z" fill="url(#V)" opacity=".6"/><path d="m117.12 13.1963c0 1.9763 5.379 3.5809 12.016 3.5809s12.016-1.6046 12.016-3.5809c0-1.9764-5.379-3.58098-12.016-3.58098s-12.016 1.60458-12.016 3.58098z" fill="url(#W)" opacity=".6"/><path d="m228.163 13.1963c0 1.9763 5.379 3.5809 12.016 3.5809s12.016-1.6046 12.016-3.5809c0-1.9764-5.379-3.58098-12.016-3.58098s-12.016 1.60458-12.016 3.58098z" fill="url(#X)" opacity=".6"/><path d="m177.607 16.7277c.89 1.0408 4.445-.5266 7.938-3.4942 3.493-2.9677 5.597-6.22026 4.701-7.2549-.891-1.04083-4.446.52661-7.939 3.49423-3.493 2.96757-5.597 6.22017-4.7 7.25487z" fill="url(#Y)" opacity=".6"/><path d="m285.499 11.8147c0 1.9763 5.379 3.581 12.016 3.581 6.638 0 12.017-1.6047 12.017-3.581 0-1.97635-5.379-3.58097-12.017-3.58097-6.637 0-12.016 1.60462-12.016 3.58097z" fill="url(#Z)" opacity=".6"/><path d="m323.292 21.7336c0 1.9763 5.379 3.581 12.016 3.581s12.016-1.6047 12.016-3.581-5.379-3.581-12.016-3.581-12.016 1.6047-12.016 3.581z" fill="url(#aa)" opacity=".6"/></svg>