<svg fill="none" height="28" viewBox="0 0 330 28" width="330" xmlns="http://www.w3.org/2000/svg" xmlns:xlink="http://www.w3.org/1999/xlink"><linearGradient id="a"><stop offset=".01" stop-color="#f2b100"/><stop offset="1" stop-color="#ed480b"/></linearGradient><linearGradient id="b" gradientUnits="userSpaceOnUse" x1="247.497" x2="247.497" xlink:href="#a" y1="27.93" y2="-27.2185"/><linearGradient id="c"><stop offset="0" stop-color="#7a1c0b"/><stop offset=".94" stop-color="#bc4408"/></linearGradient><linearGradient id="d" gradientUnits="userSpaceOnUse" x1="165" x2="318.355" xlink:href="#c" y1="12.8307" y2="12.8307"/><linearGradient id="e"><stop offset="0" stop-color="#f4a940"/><stop offset=".09" stop-color="#e69f3c"/><stop offset=".27" stop-color="#c28633"/><stop offset=".51" stop-color="#885e23"/><stop offset=".8" stop-color="#39270f"/><stop offset="1"/></linearGradient><radialGradient id="f" cx="0" cy="0" gradientTransform="matrix(68.2132 0 0 67.6427 258.254 .231193)" gradientUnits="userSpaceOnUse" r="1" xlink:href="#e"/><linearGradient id="g"><stop offset="0" stop-color="#fff"/><stop offset="1" stop-color="#fff7c4"/></linearGradient><linearGradient id="h" gradientUnits="userSpaceOnUse" x1="309.298" x2="306.379" xlink:href="#g" y1="2.85588" y2="3.52442"/><radialGradient id="i" cx="0" cy="0" gradientTransform="matrix(7.3775 0 0 7.31581 323.85 11.3535)" gradientUnits="userSpaceOnUse" r="1" xlink:href="#e"/><radialGradient id="j" cx="0" cy="0" gradientTransform="matrix(2.72046 0 0 2.6977 166.369 10.3876)" gradientUnits="userSpaceOnUse" r="1" xlink:href="#e"/><linearGradient id="k" gradientUnits="userSpaceOnUse" x1="82.4971" x2="82.4971" xlink:href="#a" y1=".000006" y2=".000006"/><linearGradient id="l" gradientUnits="userSpaceOnUse" x1="11.645" x2="165" y1="12.8307" y2="12.8307"><stop offset=".06" stop-color="#bc4408"/><stop offset="1" stop-color="#7a1c0b"/></linearGradient><linearGradient id="m" gradientUnits="userSpaceOnUse" x1="165" x2="165" xlink:href="#a" y1="27.93" y2="-27.2185"/><radialGradient id="n" cx="0" cy="0" gradientTransform="matrix(80.8298 0 0 80.1538 72.1904 -3.38671)" gradientUnits="userSpaceOnUse" r="1" xlink:href="#e"/><linearGradient id="o" gradientUnits="userSpaceOnUse" x1="20.7046" x2="23.6223" xlink:href="#g" y1="2.85714" y2="3.51981"/><radialGradient id="p" cx="0" cy="0" gradientTransform="matrix(7.37751 0 0 7.31581 6.14443 11.3535)" gradientUnits="userSpaceOnUse" r="1" xlink:href="#e"/><radialGradient id="q" cx="0" cy="0" gradientTransform="matrix(69.827 0 0 69.243 166.363 -5.87293)" gradientUnits="userSpaceOnUse" r="1" xlink:href="#e"/><linearGradient id="r"><stop offset="0" stop-color="#ff8206"/><stop offset="1" stop-color="#6b1600"/></linearGradient><linearGradient id="s" gradientUnits="userSpaceOnUse" x1="164.488" x2="162.512" xlink:href="#r" y1="12.1833" y2="7.14467"/><linearGradient id="t" gradientUnits="userSpaceOnUse" x1="165" x2="185.32" xlink:href="#c" y1="16.9948" y2="16.9948"/><linearGradient id="u" gradientUnits="userSpaceOnUse" x1="144.68" x2="165" xlink:href="#c" y1="16.9948" y2="16.9948"/><linearGradient id="v" gradientUnits="userSpaceOnUse" x1="165" x2="165" xlink:href="#r" y1="27.8309" y2="4.70653"/><radialGradient id="w" cx="0" cy="0" gradientTransform="matrix(11.3276 0 0 3.36642 314.279 3.36747)" gradientUnits="userSpaceOnUse" r="1" xlink:href="#e"/><radialGradient id="x" cx="0" cy="0" gradientTransform="matrix(11.3276 0 0 3.36642 29.9171 3.36747)" gradientUnits="userSpaceOnUse" r="1" xlink:href="#e"/><clipPath id="y"><path d="m0 0h330v28h-330z"/></clipPath><g clip-path="url(#y)"><path d="m165 2.99188v10.96442s2.7-2.6362 4.582-4.4791c33.076 0 91.242 2.2162 148.773 10.2354l11.645-16.72072z" fill="url(#b)"/><path d="m317.708 12.0433c-68.988-6.66024-134.682-6.08286-152.708-6.08286v7.99586s2.7-2.6361 4.582-4.4791c33.076 0 91.242 2.2162 148.773 10.2354 0 0-.318-3.9834-.647-7.6751z" fill="url(#d)"/><path d="m257.348 7.77422c-11.168-.91564-10.427-3.98334-.247-4.78234h-28.083c12.18.98563 12.657 3.15518 3.505 3.80254 4.394.1633 21.473.834 24.825.9798z" fill="url(#f)" opacity=".6"/><path d="m274.816 2.99188h45.821c-8.54 3.82587-30.606 3.82004-45.821 0z" fill="#f9a346" opacity=".5"/><path d="m309.698 3.19017c.012.39659-1.076.75235-2.423.78734-1.353.03499-2.423-.36159-2.429-.75818 0-.07581.047-.15163.123-.22745h4.623c.053.05832.112.13414.112.19829z" fill="url(#h)"/><path d="m165 13.9563 3.417-3.336s.859-3.15518-2.3-4.66569c-.476 0-1.117.00583-1.117.00583z" fill="#efc806" opacity=".8"/><path d="m317.708 12.0433c3.105-2.80522 7.011-5.91374 12.292-9.04559-2.423 3.48178-11.645 16.72069-11.645 16.72069-.235-2.8402-.482-5.6397-.647-7.6751z" fill="url(#i)" opacity=".6"/><path d="m165 6.81775.406 3.59845c.123 1.1081 1.035 1.5746 2.017 1.0381l.318-.175-2.741 2.677v-7.13272z" fill="url(#j)" opacity=".6"/><path d="m165 2.99188v10.96442s-2.7-2.6362-4.582-4.4791c-33.076 0-91.2421 2.2162-148.773 10.2354l-11.645-16.72072z" fill="url(#k)"/><path d="m12.2919 12.0433c68.9877-6.66024 134.6821-6.08286 152.7081-6.08286v7.99586s-2.7-2.6361-4.582-4.4791c-33.076 0-91.2421 2.2162-148.773 10.2354 0 0 .3175-3.9834.6469-7.6751z" fill="url(#l)"/><path d="m179.615 5.94877-14.615 15.57173-14.621-15.57173-5.728-.07581 1.058 3.69756 19.291 18.42948 19.285-18.42948 1.064-3.69756z" fill="url(#m)"/><path d="m72.6459 7.77422c11.1686-.91564 10.4275-3.98334.247-4.78234h28.0831c-12.1801.98563-12.6564 3.15518-3.5051 3.80254-4.3934.1633-21.4727.834-24.825.9798z" fill="url(#n)" opacity=".6"/><path d="m55.1843 2.99188h-45.82126c8.53966 3.82587 30.60626 3.82004 45.82126 0z" fill="#f9a346" opacity=".5"/><path d="m20.3023 3.19017c-.0118.39659 1.0762.75235 2.4231.78734 1.3527.03499 2.4231-.36159 2.4289-.75818 0-.07581-.047-.15163-.1235-.22745-1.535 0-3.0759 0-4.6227 0-.0529.05832-.1117.13414-.1117.19829z" fill="url(#o)"/><path d="m165 2.99188h-29.236s15.262 1.64466 24.037 2.95689c1.67-.01167 3.44.01166 5.199.01166 1.764 0 3.535-.02333 5.199-.01166 8.775-1.3064 24.037-2.95689 24.037-2.95689z" fill="#f9a346" opacity=".5"/><path d="m12.2919 12.0433c-3.1053-2.81105-7.01049-5.91957-12.2919-9.05142 2.4231 3.48178 11.645 16.72072 11.645 16.72072.2352-2.8403.4823-5.6397.6469-7.6751z" fill="url(#p)" opacity=".6"/><path d="m170.887 15.251-5.887 6.2695-5.74-6.1179c-1.729.6941-3.235 1.6797-4.435 2.8694l10.175 9.7222 10.451-9.9904c-1.247-1.1665-2.799-2.1113-4.564-2.7645z" fill="url(#q)" opacity=".6"/><path d="m160.418 9.48303 4.582-3.5226v7.99587z" fill="url(#s)" opacity=".3"/><path d="m165 25.1773 20.32-19.19354-1.035 3.58676-19.285 18.42948z" fill="url(#t)"/><path d="m165 25.1773-20.32-19.19354 1.029 3.58676 19.291 18.42948z" fill="url(#u)"/><path d="m165 25.1773-20.32-19.19354 1.029 3.58676 19.291 18.42948 19.285-18.42948 1.035-3.58676z" fill="url(#v)" opacity=".3"/><path d="m296.083 3.37096c0 1.86045 5.081 3.37097 11.35 3.37097 6.27 0 11.351-1.51052 11.351-3.37097 0-1.86044-5.081-3.37096-11.351-3.37096-6.269 0-11.35 1.51052-11.35 3.37096z" fill="url(#w)" opacity=".6"/><path d="m11.3803 3.37096c0 1.86045 5.0815 3.37097 11.3509 3.37097 6.2695 0 11.3509-1.51052 11.3509-3.37097 0-1.86044-5.0814-3.37096-11.3509-3.37096-6.2694 0-11.3509 1.51052-11.3509 3.37096z" fill="url(#x)" opacity=".6"/></g></svg>