<svg height="190" viewBox="0 0 430 190" width="430" xmlns="http://www.w3.org/2000/svg" xmlns:xlink="http://www.w3.org/1999/xlink"><clipPath id="a"><path d="m0 0h430v190h-430z"/></clipPath><radialGradient id="b" cx="150.65" cy="159.05" gradientTransform="matrix(426.03 0 0 -618.54 -64174.64 98387.3)" gradientUnits="userSpaceOnUse" r="1"><stop offset="0" stop-color="#692711"/><stop offset=".27" stop-color="#64240f"/><stop offset=".55" stop-color="#581c0a"/><stop offset=".82" stop-color="#440f01"/><stop offset=".88" stop-color="#400c00"/></radialGradient><linearGradient id="c" gradientTransform="matrix(1 0 0 -1 0 190)" gradientUnits="userSpaceOnUse" x1="215.32" x2="215.32" y1="7.14" y2="182.86"><stop offset="0" stop-color="#ede2c3"/><stop offset=".73" stop-color="#e5ce8f"/><stop offset=".82" stop-color="#e3cb8b"/><stop offset=".89" stop-color="#e0c281"/><stop offset=".95" stop-color="#dbb270"/><stop offset="1" stop-color="#d6a35f"/></linearGradient><g clip-path="url(#a)"><path d="m0 0h430v190h-430z" fill="url(#b)" fill-rule="evenodd"/><path d="m423.61 7.14c-11.36.12-22.72.23-34.08.34-1.22 1.22-3.81 2.55-4.62 2.72-.85.17-4.07-1.31-6.31-2.61-33.62.33-67.26.63-100.94.85-.97 1.09-2.44 2.36-3.37 2.75-1.21.51-5.93-.55-9.82-2.67-60.95.35-122.06.38-183.5-.26-.76 2.5-1.58 3.76-1.97 3.63-.33-.11-1.01-1.51-1.76-3.67-2.02-.02-4.05-.05-6.07-.07-1.54 1.68-3.01 2.79-3.76 2.87-.6.07-2.31-1.36-3.7-2.96-18.86-.24-37.76-.54-56.7-.92.2 13.9.37 27.83.49 41.77 1.21 1.48 2.68 3.2 2.94 4.34.14.65-.54 2.28-.93 3.22 1.54 1.43 2.64 2.58 2.67 3.36.03.87-2.62 3.15-4.56 4.54.03 4.5.05 8.99.07 13.48 2.33 1.16 3.25 1.94 3.27 2.31.02.47-1.73 1.34-3.25 1.83.07 21.99.01 43.92-.2 65.66 3.3 2.19 5.23 3.72 5.24 4.21 0 .39-2.83 1.92-5.32 3.02-.11 9.37-.24 18.7-.41 27.98 35.29-.54 70.81-.93 106.48-1.16 2.64-1.73 5.14-3.52 6.33-3.47.9.04 2.88 1.67 4.6 3.41 99.34-.57 199.71-.03 299.19 1.23-.18-11.86-.31-23.72-.4-35.55-1.33-.78-2.85-1.9-3.04-2.35-.31-.73.97-4.23 2.97-7.52-.12-20.08-.14-40.11-.08-60.11-1.05-2.82-1.55-4.97-1.49-5.71.04-.48.77-1.22 1.51-1.69.01-2.41.02-4.82.04-7.23-1.91-4.51-2.93-8.85-2.79-10.06.09-.82 1.45-2.45 2.88-3.33.1-14.07.23-28.12.4-42.16z" fill="url(#c)" fill-rule="evenodd"/><g fill="none"><path d="m14.96 14.76h400.7v160.47h-400.7z"/><path d="m14.96 14.76h400.7v160.47h-400.7z"/></g></g></svg>