<svg fill="none" height="43" viewBox="0 0 455 43" width="455" xmlns="http://www.w3.org/2000/svg" xmlns:xlink="http://www.w3.org/1999/xlink"><linearGradient id="a"><stop offset="0" stop-color="#eee"/><stop offset=".15" stop-color="#eee"/><stop offset=".32" stop-color="#dfdddb"/><stop offset=".61" stop-color="#c9c3bd"/><stop offset=".72" stop-color="#9a938e"/><stop offset=".84" stop-color="#c9c3bd"/><stop offset="1" stop-color="#eee"/></linearGradient><linearGradient id="b" gradientUnits="userSpaceOnUse" x1="181.446" x2="362.709" xlink:href="#a" y1="23.2961" y2="23.2961"/><linearGradient id="c" gradientUnits="userSpaceOnUse" x1="0" x2="181.264" xlink:href="#a" y1="-.000006" y2="-.000006"/><linearGradient id="d" gradientUnits="userSpaceOnUse" x1="437.543" x2="447.678" xlink:href="#a" y1="28.6692" y2="28.6692"/><linearGradient id="e" gradientUnits="userSpaceOnUse" x1="436.641" x2="455" xlink:href="#a" y1="20.6822" y2="20.6822"/><linearGradient id="f" gradientUnits="userSpaceOnUse" x1="437.262" x2="446.991" xlink:href="#a" y1="12.8786" y2="12.8786"/><linearGradient id="g" gradientUnits="userSpaceOnUse" x1="370.098" x2="437.32" xlink:href="#a" y1="15.4773" y2="15.4773"/><linearGradient id="h" gradientUnits="userSpaceOnUse" x1="371.81" x2="418.746" xlink:href="#a" y1="27.7291" y2="27.7291"/><linearGradient id="i" gradientUnits="userSpaceOnUse" x1="367.194" x2="384.146" xlink:href="#a" y1="30.0144" y2="30.0144"/><linearGradient id="j" gradientUnits="userSpaceOnUse" x1="370.081" x2="438.271" xlink:href="#a" y1="28.7533" y2="28.7533"/><linearGradient id="k" gradientUnits="userSpaceOnUse" x1="371.703" x2="418.605" xlink:href="#a" y1="16.6925" y2="16.6925"/><linearGradient id="l" gradientUnits="userSpaceOnUse" x1="423.925" x2="431.975" xlink:href="#a" y1="21.3854" y2="21.3854"/><linearGradient id="m" gradientUnits="userSpaceOnUse" x1="358.97" x2="366.192" xlink:href="#a" y1="23.6859" y2="23.6859"/><linearGradient id="n" gradientUnits="userSpaceOnUse" x1="367.111" x2="383.261" xlink:href="#a" y1="16.5014" y2="16.5014"/><clipPath id="o"><path d="m0 0h455v43h-455z"/></clipPath><g clip-path="url(#o)"><path d="m362.709 21.6299h-181.263v3.3324h181.263z" fill="url(#b)"/><path d="m181.264 21.6299h-181.264v3.3324h181.264z" fill="url(#c)"/><path d="m443.665 32.7736c.124.2369.348.405.704.4815.347.0764.819.0305 1.348-.214.521-.237 1.084-.7108 1.465-1.3758.388-.6649.562-1.5057.463-2.3158-.033-.4128-.182-.9249-.439-1.4599-.256-.5426-.645-1.0929-1.141-1.5821-.497-.4968-1.092-.9248-1.73-1.2687-.645-.344-1.323-.5886-1.993-.7491-.671-.1528-1.316-.2216-1.903-.2369-.29 0-.571 0-.828.0229-.256.023-.496.0459-.711.0841s-.414.0764-.579.1146c-.166.0383-.315.0918-.431.13-.231.0841-.355.1605-.355.2216 0 .0535.132.1223.355.1987.257.0841.563.1835.927.2981.19.0612.389.1376.596.214.207.0841.43.1758.645.2675.439.1988.885.4433 1.307.7261.414.2828.786.6038 1.092.9401s.546.6879.712 1.0089c.165.3287.265.6268.314.8713.017.0612.017.1223.033.1758.009.0535.025.107.025.1529 0 .0458.008.0917.017.1299v.1147c.033.2751.058.4891.074.7108.017.2216.033.4586 0 .7261-.041.5273-.231 1.1311.008 1.605z" fill="url(#d)"/><path d="m448.1 24.4273c-3.657-1.3528-8.729-1.5821-9.391-1.605-.041 0-.074-.023-.074-.0535l-1.804-1.3758c-.24-.1834-.248-.5197-.024-.7108l1.696-1.4904s.033-.0535.074-.0535c.662-.0688 5.32-.5503 9.25-2.2089.033-.0152 5.866 2.7592 7.09 3.3859.124.0612.133.1911.008.2675-1.174.7032-6.784 3.8521-6.817 3.8369z" fill="url(#e)"/><path d="m442.755 8.70548c.108-.24458.315-.42802.662-.52738.339-.09171.819-.08407 1.357.12229s1.133.64202 1.564 1.28404c.438.63437.67 1.46747.637 2.28527 0 .4127-.116.9325-.331 1.4904-.215.558-.563 1.1312-1.018 1.6509-.455.5274-1.017.9936-1.63 1.3758-.612.3821-1.274.6726-1.927.8713-.654.1911-1.299.3057-1.879.3592-.289.0229-.57.0306-.827.0306-.256-.0077-.496-.0153-.72-.0382-.215-.023-.413-.0535-.587-.0765-.174-.0305-.323-.0687-.439-.107-.24-.0688-.372-.1375-.372-.1987 0-.0535.124-.1299.348-.2216.248-.0994.554-.2217.901-.3593.182-.0764.381-.1681.58-.2522.198-.0993.413-.1987.628-.3133.422-.2293.852-.5045 1.25-.8026.388-.3133.736-.6573 1.017-1.0089.282-.3515.497-.7184.637-1.0547.141-.3363.215-.642.24-.8942.017-.0612.009-.1223.017-.1758 0-.0535.016-.107.008-.1529 0-.0459 0-.0917 0-.1376 0-.0382 0-.0764 0-.1146.008-.2752.017-.4968.025-.7185 0-.2216 0-.4586-.05-.7184-.074-.52739-.322-1.11591-.107-1.60507z" fill="url(#f)"/><path d="m437.154 8.91184c.157-.13758.207-.37451.132-.72609-.066-.34394-.256-.79488-.57-1.32226-.149-.2675-.34-.5503-.563-.85602-.215-.30573-.48-.62674-.769-.95539-.588-.66495-1.324-1.39104-2.276-2.0942-.943-.71081-2.093-1.41397-3.499-1.979563-1.407-.550303-3.086-.9630292-4.906-.97831535-1.821-.03821545-3.707.32865235-5.453.97067235-1.745.649666-3.359 1.559186-4.807 2.598646-1.464 1.03946-3.177 2.52986-4.922 4.35656-1.754 1.8267-3.55 3.98972-5.386 6.29022-1.837 2.3006-3.715 4.7464-5.734 7.0393-.505.5733-1.018 1.1312-1.547 1.6739-.265.2675-.53.535-.803.7872-.14.1376-.264.2522-.397.3592-.132.1147-.256.2293-.389.344-1.083.8789-2.333 1.6432-3.673 2.2241-1.34.5885-2.755 1.0242-4.17 1.2993-1.423.2752-2.838.4204-4.211.4204-2.739 0-5.237-.5274-7.206-1.307-.993-.3821-1.853-.8254-2.573-1.2764-.737-.4356-1.316-.8866-1.796-1.2611-.463-.3898-.827-.6955-1.067-.9171-.248-.2141-.397-.3211-.438-.2905-.033.0229.033.1834.19.4662.149.2905.43.6879.811 1.1771.405.4815.918 1.0547 1.605 1.6432.678.5962 1.522 1.2076 2.54 1.7732 2.01 1.1389 4.699 2.079 7.785 2.4229 1.539.1758 3.177.1911 4.848.0459 1.68-.1453 3.401-.4816 5.089-1.0395 1.696-.5427 3.359-1.3299 4.897-2.3541.191-.1299.373-.2675.563-.4051.19-.1375.372-.2751.538-.405.347-.2676.678-.5427 1.009-.8179.654-.5503 1.283-1.1158 1.887-1.6891 2.424-2.2853 4.558-4.6317 6.56-6.7641 1.994-2.1401 3.848-4.0738 5.527-5.6482 1.671-1.5745 3.161-2.77449 4.302-3.58465 1.142-.81781 2.292-1.48276 3.392-1.97192 1.109-.47387 2.176-.76431 3.211-.85603 1.034-.107 2.051-.01528 3.044.18344.985.214 1.936.53501 2.813.89424.877.35922 1.671.74902 2.391 1.11589.356.17579.695.34394 1.01.51209.297.14521.595.29043.877.42801 1.092.51209 1.828.72609 2.151.45094z" fill="url(#g)"/><path d="m418.125 21.9204c-.587-.0765-1.117 1.5439-2.391 3.5769-.165.2523-.331.5121-.529.7567-.182.2599-.406.4968-.621.749-.463.4815-.985.9478-1.588 1.3452-1.208.8025-2.78 1.3223-4.617 1.4828-.91.084-2.151.107-3.632-.0612-1.473-.1758-3.177-.5273-4.939-1.1312-1.738-.5808-3.616-1.4827-5.56-2.3846-1.953-.9019-4.005-1.8573-6.172-2.484-2.151-.642-4.385-.9325-6.396-.8102-2.027.107-3.739.558-5.171.8713-.711.1682-1.356.2981-1.927.4128-.571.107-1.068.1758-1.481.2446-.819.0764-1.291.1452-1.299.1987 0 .0535.463.1223 1.315.2063.422.0077.944.023 1.547.0077.596-.0306 1.283-.0688 2.019-.1452 1.473-.13 3.194-.3516 4.989-.2523 1.804.0841 3.723.5427 5.585 1.2917 1.87.7414 3.69 1.7885 5.535 2.8432 1.845 1.0548 3.698 2.1478 5.684 2.9732 1.952.8255 3.905 1.3681 5.675 1.6662 1.779.2904 3.376.321 4.6.2064 1.225-.107 2.441-.3745 3.558-.7949s2.143-1.0165 2.978-1.7044c.844-.6879 1.498-1.4751 1.994-2.2394.232-.3898.455-.7644.612-1.1465.182-.3745.307-.7414.422-1.093.439-1.4063.464-2.5528.389-3.34-.107-.7872-.314-1.2153-.587-1.2458z" fill="url(#h)"/><path d="m384.146 34.7225c0-.1681-.157-.3363-.447-.5044-.149-.0841-.323-.1605-.529-.2369-.207-.0841-.439-.1682-.695-.2523-1.026-.3363-2.4-.7108-3.872-1.1846-.737-.2446-1.928-.6344-3.235-1.2688-1.307-.6267-2.706-1.5363-3.938-2.5222-.307-.2446-.596-.5045-.886-.749-.132-.1223-.256-.2446-.38-.3593-.124-.1223-.24-.2598-.356-.3821-.455-.5121-.86-1.0318-1.216-1.4598-.364-.4281-.695-.7644-.943-.9707-.265-.2064-.414-.2981-.447-.2752-.025.023.058.1835.215.4433.149.2675.356.6497.596 1.1312s.504 1.0624.868 1.7044c.1.1605.191.321.298.4892.116.1605.232.3286.356.4968.248.3057.496.6267.778.9324 1.092 1.2459 2.457 2.4688 3.839 3.3477 1.373.8942 2.722 1.4675 3.574 1.7503 1.712.5503 3.359.6878 4.525.5885.29-.0229.555-.0612.786-.0994.232-.0535.43-.107.596-.1758.323-.1299.505-.2751.513-.4433z" fill="url(#i)"/><path d="m438.072 33.2627c-.347-.2522-1.067.0077-2.118.5885-.281.1605-.562.321-.843.4892-.298.1834-.621.3745-.968.5732-.687.4051-1.448.8484-2.3 1.2611-.844.4128-1.771.8026-2.739 1.0777-.976.2599-1.986.4204-3.028.3745-1.043-.0229-2.126-.2446-3.268-.6496-1.142-.4128-2.333-1.0013-3.533-1.7427-1.208-.7337-2.78-1.8343-4.559-3.3018-1.787-1.4598-3.781-3.2712-5.932-5.2814-2.159-2.0024-4.459-4.2113-7.049-6.3361-.653-.5273-1.315-1.0547-2.01-1.5668-.348-.2522-.703-.5045-1.067-.749-.174-.1223-.373-.2446-.571-.3669-.199-.1223-.397-.2522-.596-.3669-1.613-.9171-3.334-1.605-5.072-2.0407-1.737-.4433-3.474-.6726-5.162-.7108-1.688-.0458-3.318.0765-4.849.3516-3.061.5427-5.675 1.6509-7.595 2.9273-.968.6267-1.77 1.2993-2.399 1.9413-.645.6268-1.117 1.2459-1.473 1.7503-.339.5197-.587.9325-.711 1.2382-.132.2981-.182.4662-.141.4892.042.0229.174-.0918.406-.3287.215-.2369.562-.5732.992-.9936.456-.4051.993-.8942 1.697-1.3834.686-.4968 1.514-.9936 2.473-1.4445 1.911-.9096 4.369-1.6051 7.107-1.7732 1.365-.0918 2.797-.0383 4.236.1452 1.44.1834 2.888.5274 4.269 1.0318 1.382.4968 2.689 1.177 3.839 1.9948.141.0994.282.214.422.3211.141.107.282.214.422.3362.29.237.579.4892.861.7338.57.5044 1.125 1.0318 1.671 1.5668 2.184 2.163 4.244 4.4865 6.246 6.6648 2.003 2.1783 3.955 4.219 5.841 5.931 1.878 1.7197 3.699 3.0955 5.238 4.0356 1.53.9477 3.201 1.7426 4.997 2.2853 1.787.5273 3.706.7719 5.518.619 1.812-.1299 3.458-.6496 4.815-1.2916 1.357-.6573 2.449-1.4369 3.343-2.2012.893-.7644 1.572-1.5363 2.11-2.2395.273-.3516.504-.6802.703-1.0012.198-.3134.372-.6115.496-.8866.273-.5503.422-1.0089.463-1.3605.042-.3516-.016-.5885-.19-.7108z" fill="url(#j)"/><path d="m418.109 21.5076c.264-.0458.438-.4891.488-1.2763.016-.7873-.091-1.9337-.637-3.3019-.141-.3439-.29-.7031-.497-1.0623-.182-.3669-.438-.7261-.703-1.1007-.554-.7337-1.266-1.4674-2.159-2.1018-.886-.6344-1.953-1.1618-3.103-1.5133-1.15-.3516-2.374-.535-3.607-.5656s-2.83.0993-4.575.5044c-1.746.4127-3.657 1.0701-5.544 2.0178-1.919.9554-3.69 2.1553-5.452 3.3247s-3.5 2.3312-5.311 3.1872c-1.796.8713-3.674 1.4445-5.461 1.6433-1.779.214-3.516.107-4.997.0688-.736-.0306-1.423-.023-2.027-.0077-.604.0229-1.125.0764-1.547.1147-.844.1452-1.299.2522-1.291.3057 0 .0535.488.0841 1.307.0993.414.0383.919.0765 1.498.1453.579.0764 1.233.1605 1.952.2828 1.448.2216 3.186.5503 5.213.535 2.01 0 4.211-.4357 6.312-1.2153 2.11-.7643 4.087-1.842 5.965-2.8661 1.879-1.0242 3.682-2.0407 5.37-2.7363 1.713-.7108 3.384-1.177 4.84-1.4445 1.456-.2599 2.697-.321 3.615-.2981 1.845.0382 3.459.4586 4.716 1.1771.637.3592 1.192.7872 1.688 1.2381.232.237.48.4586.679.7108.215.237.405.4816.587.7185 1.423 1.949 2.077 3.5311 2.656 3.4164z" fill="url(#k)"/><path d="m428.086 25.0999c-2.217.0688-4.087-1.5363-4.161-3.5846-.075-2.0484 1.663-3.7757 3.88-3.8445s4.087 1.5363 4.162 3.5846c.074 2.0484-1.663 3.7757-3.881 3.8445z" fill="url(#l)"/><path d="m362.709 27.0183c-1.994.0612-3.665-1.3757-3.731-3.2177s1.489-3.3859 3.483-3.4471c1.994-.0611 3.665 1.3758 3.731 3.2178.067 1.842-1.489 3.3859-3.483 3.447z" fill="url(#m)"/><path d="m383.261 11.1895c-.017-.1682-.207-.3057-.546-.4127-.166-.0535-.373-.0994-.604-.13-.232-.0306-.497-.0458-.795-.0535-1.174-.0153-2.804.2217-4.467.879-.828.3363-2.127.9936-3.434 1.9719-1.315.9707-2.589 2.27-3.59 3.5846-.257.3287-.48.6649-.704.986-.107.1681-.215.3515-.314.5197-.099.1681-.174.3439-.265.5044-.314.6573-.538 1.2535-.744 1.7579-.199.4968-.373.8943-.505 1.1694-.141.2675-.207.4357-.174.4586.025.0229.174-.0841.414-.3134.231-.2292.529-.5808.86-1.0318.331-.4509.687-.9859 1.109-1.5362.107-.13.215-.2752.323-.4051.115-.1299.239-.2599.355-.3822.273-.2598.538-.535.836-.8025 1.158-1.0624 2.482-2.056 3.74-2.7668 1.257-.7184 2.424-1.177 3.135-1.4675 1.431-.5655 2.772-1.0241 3.773-1.4292.248-.0994.471-.1987.67-.2981.199-.0917.372-.1834.513-.2751.281-.1835.43-.3669.405-.5351z" fill="url(#n)"/></g></svg>