<svg height="92" preserveAspectRatio="none" viewBox="0 0 430 92" width="430" xmlns="http://www.w3.org/2000/svg" xmlns:xlink="http://www.w3.org/1999/xlink"><linearGradient id="a" gradientTransform="matrix(1 0 0 -1 0 94)" gradientUnits="userSpaceOnUse" x1="39" x2="39" y1="2.68" y2="74.65"><stop offset="0" stop-color="#bf948d"/><stop offset=".33" stop-color="#c29e98"/><stop offset=".93" stop-color="#ccbbb7"/><stop offset="1" stop-color="#cebfbc"/></linearGradient><linearGradient id="b"><stop offset="0" stop-color="#654c56"/><stop offset=".11" stop-color="#6d555f"/><stop offset=".3" stop-color="#836f77"/><stop offset=".54" stop-color="#a89aa0"/><stop offset=".82" stop-color="#dad4d7"/><stop offset="1" stop-color="#fff"/></linearGradient><linearGradient id="c" gradientTransform="matrix(1 0 0 -1 0 94)" gradientUnits="userSpaceOnUse" x1="39" x2="39" xlink:href="#b" y1="9.23" y2="89.9"/><linearGradient id="d" gradientTransform="matrix(1 0 0 -1 0 94)" gradientUnits="userSpaceOnUse" x1="39" x2="39" y1="3.03" y2="83.7"><stop offset="0" stop-color="#fff"/><stop offset=".18" stop-color="#dad4d7"/><stop offset=".46" stop-color="#a89aa0"/><stop offset=".7" stop-color="#836f77"/><stop offset=".89" stop-color="#6d555f"/><stop offset="1" stop-color="#654c56"/></linearGradient><linearGradient id="e" gradientTransform="matrix(1 0 0 -1 0 94)" gradientUnits="userSpaceOnUse" x1="39" x2="39" xlink:href="#b" y1="2.68" y2="38.76"/><linearGradient id="f" gradientTransform="matrix(1 0 0 -1 0 94)" gradientUnits="userSpaceOnUse" x1="39.15" x2="39.15" y1="68.64" y2="90.56"><stop offset=".22" stop-color="#bf948d"/><stop offset=".36" stop-color="#c59f98"/><stop offset=".61" stop-color="#d7bdb7"/><stop offset=".94" stop-color="#f4ede9"/><stop offset="1" stop-color="#faf6f3"/></linearGradient><linearGradient id="g" gradientTransform="matrix(1 0 0 -1 0 94)" gradientUnits="userSpaceOnUse" x1="39.36" x2="39.36" y1="71.33" y2="92.78"><stop offset=".16" stop-color="#654c56"/><stop offset=".26" stop-color="#6d555f"/><stop offset=".41" stop-color="#836f77"/><stop offset=".61" stop-color="#a89aa0"/><stop offset=".85" stop-color="#dad4d7"/><stop offset="1" stop-color="#fff"/></linearGradient><path d="m0 51.41c0 22.04 17.46 39.9 39 39.9s39-17.87 39-39.9-17.46-39.9-39-39.9-39 17.87-39 39.9zm10.31-.77c0-15.9 12.85-28.79 28.69-28.79s28.69 12.89 28.69 28.79-12.85 28.79-28.69 28.79-28.69-12.89-28.69-28.79z" fill="url(#a)"/><path d="m9.1 50.64c0 17.77 13.38 32.18 29.89 32.18s29.89-14.41 29.89-32.18-13.38-32.18-29.89-32.18-29.89 14.4-29.89 32.18zm1.2 0c0-15.9 12.85-28.79 28.69-28.79s28.69 12.89 28.69 28.79-12.85 28.79-28.69 28.79-28.69-12.89-28.69-28.79z" fill="url(#c)" opacity=".65"/><path d="m39 82.81c16.36 0 29.64-14.14 29.89-31.68-.25-17.01-13.53-30.72-29.89-30.72s-29.64 13.71-29.89 30.72c.25 17.54 13.53 31.68 29.89 31.68zm-28.69-31.2c0-.16 0-.32.01-.48 0-.17-.01-.33-.01-.5 0-15.9 12.85-28.79 28.69-28.79s28.69 12.89 28.69 28.79c0 .17 0 .33-.01.5 0 .16.01.32.01.48 0 15.41-12.85 27.91-28.69 27.91s-28.69-12.5-28.69-27.91z" fill="url(#d)" opacity=".65"/><path d="m25.82 79.53c7.73 4.22 17.86 4.27 25.73.32 9.43-1.24 17.19-2.67 20.69-7.56-15.04 25.48-52.14 25.17-66.79-.51 2.97 4.45 10.85 6.19 20.37 7.75z" fill="#654c56" opacity=".38"/><path d="m52.23 21.77c-7.73-4.22-17.6-4.43-25.47-.47-9.43 1.24-17.5 4.36-21 9.25 15.04-25.48 52.14-25.17 66.79.51-2.97-4.45-10.79-7.72-20.31-9.28z" fill="#d4d8cc" opacity=".4"/><path d="m38.93 18.46c3.42-.21 3.81-.01 11.58 1.95 7.26 1.84 11.28 6.72 14.9 15.14-5.02-10.16-15.04-17.09-26.48-17.09z" fill="#fff" opacity=".85"/><path d="m39 89.67c21.4 0 38.77-17.07 39-38.21v.42c0 21.78-17.46 39.44-39 39.44s-39-17.66-39-39.44c0-.14 0-.28 0-.42.22 21.14 17.59 38.21 39 38.21z" fill="url(#e)" opacity=".69"/><path d="m60.2 22.09c2.75 1.63 5.98 1.19 4.64-.32s-3.99-3.55-5.66-4.02c-1.67-.48-1.32 2.96 1.01 4.34z" fill="#fff" opacity=".85"/><path d="m44.8 22.44s-5.73-1.29-11.47.05c0 0 1.66-3.46-2.73-10 0 0 8.76-2.21 17.52.1 0 0-2.32 2.39-3.11 4.6s-.21 5.24-.21 5.24z" fill="#654c56" opacity=".38"/><path d="m39.48 24.61s-8.39-4.23-10.18-10c0 0 3.04-9.87 10.06-14.62 0 0 6.7 6.41 9.64 14.62 0 0-2.62 6.41-9.52 10z" fill="url(#f)"/><path d="m43.21 14.64c.42-.92.47-1.98.13-2.93-1.48-4.12-3.94-6.66-3.94-6.66-1.79 1.83-3.22 4.94-3.96 6.77-.43 1.07-.39 2.29.15 3.3.21.39.44.76.69 1.11 1.2 1.91 3.11 3.22 3.11 3.22.98-.63 1.74-1.46 2.32-2.28.07-.1.14-.2.21-.3.56-.79.99-1.58 1.28-2.23zm-.9 1.61s-.02.04-.04.06c.01-.02.03-.04.04-.06z" fill="url(#g)" opacity=".38"/><g fill="#654c56"><path d="m43.35 11.7c-1.48-4.12-3.94-6.66-3.94-6.66-1.79 1.83-3.22 4.94-3.96 6.77-.43 1.07-.39 2.29.15 3.3.21.39.44.76.69 1.11-.07-.11-.13-.21-.2-.33-.47-.83-.51-1.83-.13-2.71.64-1.5 1.88-4.05 3.44-5.55 0 0 2.14 2.08 3.43 5.45.3.78.25 1.65-.11 2.4-.24.48-.57 1.07-.99 1.66.66-.89 1.15-1.8 1.49-2.53.42-.92.47-1.98.13-2.93z" opacity=".38"/><path d="m36.76 16.9c-1.34-2.01 7.76-4.28 5.75-1-2.01 3.29-3.11 3.54-3.11 3.54s-1.98-1.55-2.64-2.54z" opacity=".38"/><path d="m30.41 16.31c-1.44-2.25 2.68-2.61 8.96 3.99 0 0 2.99-2.84 6.51-4.79 4.72-2.63 1.78 3.94-6.47 8.12 0 0-5.41-1.72-8.99-7.32z" opacity=".38"/></g><path d="m41.2 6.89c-2.68-4.34-3.04-8.85.16-4.75s8.26 11.32 6.3 11.06-5.15-4.21-6.45-6.32z" fill="#fff" opacity=".85"/><g fill="#d4d8cc"><path d="m32.2 11.97c2.81-1.45 4.09-2.56 5.3-5.9 1.21-3.33.01-5.09-3.2-.45s-4.23 7.44-2.11 6.35z" opacity=".2"/><path d="m40.44 2.42c-.05 1.11 1.56 3.84 3.13 4.26s-3.04-6.57-3.13-4.26z" opacity=".4"/><path d="m38.39 9.31c-1.07 2.11 4.93 5.16 3.77 2.6-1.15-2.56-2.62-4.87-3.77-2.6z" opacity=".4"/></g></svg>