<svg height="92" preserveAspectRatio="none" viewBox="0 0 430 92" width="430" xmlns="http://www.w3.org/2000/svg" xmlns:xlink="http://www.w3.org/1999/xlink"><radialGradient id="a" cx="150.22" cy="110.91" gradientTransform="matrix(194.59 0 0 -193.7 -28999.7 21533.8)" gradientUnits="userSpaceOnUse" r="1"><stop offset="0" stop-color="#692711"/><stop offset=".27" stop-color="#64240f"/><stop offset=".55" stop-color="#581c0a"/><stop offset=".82" stop-color="#440f01"/><stop offset=".88" stop-color="#400c00"/></radialGradient><linearGradient id="b" gradientTransform="matrix(1 0 0 -1 0 94)" gradientUnits="userSpaceOnUse" x1="233" x2="233" y1="14.37" y2="72.31"><stop offset="0" stop-color="#ede2c3"/><stop offset=".73" stop-color="#e5ce8f"/><stop offset=".82" stop-color="#e3cb8b"/><stop offset=".89" stop-color="#e0c281"/><stop offset=".95" stop-color="#dbb270"/><stop offset="1" stop-color="#d6a35f"/></linearGradient><mask id="c" height="46.61" maskUnits="userSpaceOnUse" width="371.09" x="47.45" y="27.34"><path d="m109.15 27.34h247.76v46.61h-247.76z" fill="none"/></mask><path d="m36 15.66h394v70h-394z" fill="url(#a)" fill-rule="evenodd"/><path d="m423.93 21.69c-8.07.12-16.16.22-24.24.33-8.09.1-16.18.19-24.27.27-1.51.73-3.64 1.47-4.95 1.54-.48.03-1.94-.68-2.94-1.47-13.01.12-26.03.21-39.07.28-13.04.06-149.39.1-162.45.1-.84.98-4.09 2.59-4.55 2.49-2.23-.49-5.11-1.34-7.99-2.49-6.94 0-13.88-.03-20.82-.06s-13.89-.07-20.84-.12c-.57.43-1.61 1.19-1.98 1.18-.22 0-1.29-.5-2.21-1.21-5.34-.04-10.68-.09-16.02-.14-5.35-.05-10.69-.11-16.04-.18-1.07 1.18-2.76 2.66-3.33 2.74-.36.05-1.74-.82-3.8-2.83-4.39-.06-8.78-.12-13.17-.19s-8.79-.14-13.18-.22v20.07c2.09 1.28 3.1 2.3 3.17 2.7.05.27-2.23 1.91-3.17 2.54v32.62c1.78-.02 3.57-.04 5.36-.06 1.78-.02 3.57-.04 5.36-.06.83-.68 2.16-1.59 2.44-1.53.47.11 1.47.83 2.36 1.48 11.18-.11 22.35-.22 33.53-.32s22.35-.18 33.53-.25c1.34-.74 3.68-1.52 3.99-1.49.89.08 2.6.76 3.91 1.44.99 0 1.99-.01 2.98-.02.99 0 1.99 0 2.98-.02.75-1.21 1.39-2.37 1.78-2.36.35 0 1.11 1.27 1.7 2.34 10.43-.05 82.51-.08 92.94-.1s82.51-.02 92.94 0c1.5-1.18 2.96-1.72 4.38-1.68 1.42.03 2.8.63 4.14 1.71 14.59.05 29.18.14 43.77.29s29.18.35 43.77.61v-8.72c-1.12-1.42-2.26-3.01-2.33-3.31-.1-.45.83-1.79 2.33-3.62v-42.28z" fill="url(#b)" fill-rule="evenodd"/><g mask="url(#c)"><path d="m47.45 27.34h371.09v46.61h-371.09z" fill="none"/></g></svg>